<?xml version="1.0" encoding="utf-8"?>
<!-- Generator: Adobe Illustrator 19.2.1, SVG Export Plug-In . SVG Version: 6.00 Build 0)  -->
<svg version="1.1" id="layer" xmlns="http://www.w3.org/2000/svg" xmlns:xlink="http://www.w3.org/1999/xlink" x="0px" y="0px"
	 viewBox="0 0 652 652" style="enable-background:new 0 0 652 652;" xml:space="preserve">
<style type="text/css">
	.st0{fill:#48A23F;}
</style>
<title>logo</title>
<desc>Created with Sketch.</desc>
<path class="st0" d="M196.8,379v-10.9c-6.2,7.9-16.2,11.9-29,11.9c-19.2,0-31.3-11.9-31.3-27.8c0-16.6,12.2-26.8,34-26.9h26.1v-2.3
	c0-10.4-6.9-16.6-20.2-16.6c-8.4,0-17.4,2.8-26.6,8.4l-7.9-15.1c12.9-7.2,22.9-11,39.3-11c23.4,0,36.7,11.9,36.8,31.8l0.2,58.6
	H196.8z M196.7,347.8v-6h-22.6c-11.5,0-16.9,2.3-16.9,9c0,7.5,6,12.4,15.9,12.4C185.6,363.2,195.5,356.5,196.7,347.8L196.7,347.8z
	 M284.8,288.6v21.1c-18.9-1.2-30.5,9.9-30.5,26.1V379h-21.8v-89.5h21.8v17.2C260.4,294.9,271,288.7,284.8,288.6 M334,288.7
	c-26.8,0-45.5,18.4-45.5,45.7c0,26.9,18.2,45.3,46,45.3c15.7,0,28.8-5.7,37.7-15.4l-11.7-12.2c-6.4,6.5-14.9,10-24.1,10
	c-13.1,0-22.8-7.7-25.6-20.4h66.1C379.1,309.3,365.5,288.7,334,288.7 M334.2,305.7c12.9,0,21.5,7.5,22.8,19.6h-46.3
	C313.2,313.2,322,305.7,334.2,305.7 M433.1,288.7c-26.8,0-45.5,18.4-45.5,45.7c0,26.9,18.2,45.3,46,45.3c15.7,0,28.8-5.7,37.7-15.4
	l-11.7-12.2c-6.4,6.5-14.9,10-24.1,10c-13.1,0-22.8-7.7-25.6-20.4H476C478.1,309.3,464.6,288.7,433.1,288.7 M433.3,305.7
	c12.8,0,21.5,7.5,22.8,19.6h-46.3C412.3,313.2,421.1,305.7,433.3,305.7 M621.8,323.6v55.9h-21.9v-49.5c0-12.7-6.6-20.4-15.1-20.4
	c-12.5,0-18.9,11.2-18.9,25.8v44.2H544v-49.5c0-12.7-7.4-20.4-16.2-20.4c-14.4,0-17.9,11.2-17.9,25.8v44.2h-21.8v-89.5h21.8
	l0.1,14.4c5.7-9.4,14.2-15.1,25.6-15.2c14,0,23.6,9.4,26.3,17.9c8.6-13.6,17.2-17.9,30.8-17.9C610.7,289.1,621.8,302.3,621.8,323.6
	 M81.8,380.5c-33.1,0-60-26.9-60-60h22.8c0,20.5,16.7,37.2,37.2,37.2c6.6,0,13-1.7,18.6-5c3.7-2.2,7.1-5,9.8-8.3l17.5,14.7
	c-4.5,5.3-9.8,9.8-15.9,13.3C102.7,377.8,92.3,380.5,81.8,380.5 M110.2,296.6c-5.1-6-12.1-10.4-19.6-12.2l5.4-22.2
	c12.3,3,23.6,10,31.7,19.7L110.2,296.6 M68.9,283.6c0,9.4-7.6,17.1-17.1,17.1c-9.4,0-17.1-7.6-17.1-17.1c0-9.4,7.6-17.1,17.1-17.1
	C61.3,266.5,68.9,274.2,68.9,283.6"/>
</svg>
